<?xml version="1.0" encoding="utf-8"?><svg viewBox="0 0 256 68" xmlns="http://www.w3.org/2000/svg" xmlns:xlink="http://www.w3.org/1999/xlink"><style>:root>svg{display:none}:root>svg:target{display:block}</style><svg fill="none" viewBox="0 0 52 52" id="icon-instagram" xmlns="http://www.w3.org/2000/svg"><path d="M26 19.23c-3.727 0-6.77 3.043-6.77 6.77 0 3.727 3.043 6.77 6.77 6.77 3.727 0 6.77-3.043 6.77-6.77 0-3.727-3.043-6.77-6.77-6.77ZM46.302 26c0-2.803.026-5.58-.132-8.379-.157-3.25-.898-6.134-3.275-8.51-2.382-2.383-5.261-3.119-8.511-3.276-2.803-.158-5.58-.132-8.379-.132-2.803 0-5.58-.026-8.379.132-3.25.157-6.134.899-8.51 3.275-2.382 2.382-3.119 5.261-3.276 8.511-.158 2.803-.132 5.58-.132 8.379 0 2.798-.026 5.58.132 8.379.157 3.25.899 6.134 3.275 8.51 2.382 2.382 5.261 3.119 8.511 3.276 2.803.158 5.581.132 8.38.132 2.802 0 5.58.026 8.378-.132 3.25-.157 6.134-.899 8.51-3.275 2.383-2.382 3.119-5.261 3.276-8.511.163-2.798.132-5.576.132-8.38ZM26 36.415A10.4 10.4 0 0 1 15.585 26 10.4 10.4 0 0 1 26 15.585 10.4 10.4 0 0 1 36.415 26 10.4 10.4 0 0 1 26 36.415Zm10.842-18.824a2.43 2.43 0 0 1-2.433-2.433 2.43 2.43 0 0 1 2.433-2.432 2.43 2.43 0 0 1 2.248 3.364 2.43 2.43 0 0 1-2.248 1.5Z" fill="#999"/></svg><svg fill="none" viewBox="0 0 54 54" id="icon-pinterest" xmlns="http://www.w3.org/2000/svg"><g clip-path="url(#ba)"><path d="M0 27c0 11.527 7.225 21.368 17.392 25.24-.247-2.108-.51-5.584.057-8.023.488-2.097 3.152-13.36 3.152-13.36s-.803-1.61-.803-3.992c0-3.735 2.164-6.525 4.862-6.525 2.295 0 3.402 1.721 3.402 3.785 0 2.306-1.47 5.753-2.228 8.95-.632 2.675 1.344 4.858 3.98 4.858 4.778 0 8.452-5.038 8.452-12.31 0-6.437-4.626-10.935-11.23-10.935-7.646 0-12.134 5.735-12.134 11.664 0 2.31.889 4.786 2 6.134a.81.81 0 0 1 .187.771c-.205.85-.66 2.675-.747 3.049-.12.49-.39.596-.9.358-3.357-1.562-5.454-6.469-5.454-10.411 0-8.48 6.158-16.265 17.757-16.265 9.324 0 16.571 6.644 16.571 15.523 0 9.263-5.839 16.72-13.948 16.72-2.724 0-5.283-1.418-6.16-3.09 0 0-1.348 5.135-1.674 6.39-.635 2.439-2.394 5.526-3.485 7.279A26.988 26.988 0 0 0 27 54c14.91 0 27-12.09 27-27S41.91 0 27 0 0 12.09 0 27Z" fill="#999"/></g><defs><clipPath id="ba"><path fill="#fff" d="M0 0h54v54H0z"/></clipPath></defs></svg><svg fill="none" viewBox="0 0 14 18" id="icon-report" xmlns="http://www.w3.org/2000/svg"><g clip-path="url(#ca)"><path d="M12.25 0H1.75C.783 0 0 .756 0 1.688V18l7-3.938L14 18V1.687C14 .756 13.216 0 12.25 0Zm0 15.062L7 12.109l-5.25 2.953V1.898c0-.056.023-.11.064-.149a.223.223 0 0 1 .155-.062H12.03c.121 0 .219.095.219.211v13.164Z" fill="#999"/></g><defs><clipPath id="ca"><path fill="#fff" d="M0 0h14v18H0z"/></clipPath></defs></svg><svg fill="none" viewBox="0 0 24 24" id="icon-time" xmlns="http://www.w3.org/2000/svg"><path d="M12 20c4.4 0 8-3.6 8-8s-3.6-8-8-8-8 3.6-8 8 3.6 8 8 8Zm0-18c5.5 0 10 4.5 10 10s-4.5 10-10 10S2 17.5 2 12 6.5 2 12 2Zm5 9.5V13h-6V7h1.5v4.5H17Z" fill="#999"/></svg><svg fill="none" viewBox="0 0 54 54" id="icon-vk" xmlns="http://www.w3.org/2000/svg"><g clip-path="url(#ea)"><path fill-rule="evenodd" clip-rule="evenodd" d="M52.763 13.383c.373-1.228 0-2.133-1.79-2.133h-5.905c-1.503 0-2.197.78-2.572 1.643 0 0-3.004 7.19-7.259 11.861-1.377 1.355-2.002 1.785-2.754 1.785-.375 0-.94-.43-.94-1.66V13.382c0-1.476-.414-2.133-1.665-2.133H20.59c-.939 0-1.503.684-1.503 1.334 0 1.398 2.128 1.722 2.346 5.654v8.546c0 1.874-.344 2.214-1.095 2.214-2.003 0-6.874-7.225-9.765-15.491-.56-1.609-1.128-2.257-2.637-2.257H2.025C.337 11.25 0 12.03 0 12.893c0 1.534 2.002 9.157 9.326 19.24C14.21 39.016 21.082 42.75 27.344 42.75c3.755 0 4.219-.828 4.219-2.257V35.29c0-1.658.356-1.989 1.546-1.989.877 0 2.378.432 5.883 3.75 4.006 3.936 4.665 5.7 6.92 5.7h5.906c1.687 0 2.533-.828 2.047-2.466-.535-1.629-2.448-3.994-4.984-6.8-1.377-1.597-3.442-3.318-4.07-4.18-.875-1.105-.626-1.598 0-2.58 0 0 7.2-9.96 7.95-13.341h.002Z" fill="#999"/></g><defs><clipPath id="ea"><path fill="#fff" d="M0 0h54v54H0z"/></clipPath></defs></svg><svg fill="none" viewBox="0 0 54 54" id="icon-yuotube" xmlns="http://www.w3.org/2000/svg"><g clip-path="url(#fa)"><path d="M52.875 14.64a6.269 6.269 0 0 0-1.724-2.857 6.862 6.862 0 0 0-3.01-1.67C43.916 9 26.987 9 26.987 9c-7.058-.08-14.114.273-21.128 1.057-1.13.314-2.163.901-3.01 1.71a6.517 6.517 0 0 0-1.751 2.871A65.452 65.452 0 0 0 0 27c-.027 4.142.34 8.28 1.098 12.361a6.36 6.36 0 0 0 1.744 2.856 6.965 6.965 0 0 0 3.017 1.671C10.141 45 26.986 45 26.986 45a172.79 172.79 0 0 0 21.155-1.058 6.862 6.862 0 0 0 3.01-1.67 6.256 6.256 0 0 0 1.722-2.857A63.86 63.86 0 0 0 54 27.052a59.8 59.8 0 0 0-1.125-12.414v.003Zm-31.27 20.064V19.298l14.085 7.704-14.085 7.702Z" fill="#999"/></g><defs><clipPath id="fa"><path fill="#fff" d="M0 0h54v54H0z"/></clipPath></defs></svg><svg fill="none" viewBox="0 0 256 68" id="logo-footer" xmlns="http://www.w3.org/2000/svg"><path d="M99.19 26.58h5.629v6.334h-5.41v16.95h-8.29v-16.95H87.67V26.58h3.447v-.625c0-2.944.858-5.278 2.575-7.003 1.745-1.724 4.174-2.587 7.286-2.587 1.047 0 2.065.104 3.054.313.989.208 1.804.52 2.444.936l-2.051 5.977c-.814-.476-1.643-.713-2.487-.713-.873 0-1.556.267-2.05.802-.466.536-.699 1.324-.699 2.364v.536ZM120.369 50.265c-2.531 0-4.814-.535-6.85-1.606-2.036-1.07-3.636-2.557-4.8-4.46-1.134-1.904-1.701-4.06-1.701-6.468 0-2.379.567-4.52 1.701-6.423 1.164-1.903 2.749-3.375 4.756-4.416 2.036-1.07 4.334-1.606 6.894-1.606 2.56 0 4.858.535 6.894 1.606 2.036 1.04 3.622 2.513 4.756 4.416 1.135 1.873 1.702 4.014 1.702 6.423 0 2.408-.567 4.564-1.702 6.468-1.134 1.903-2.72 3.39-4.756 4.46-2.036 1.07-4.334 1.606-6.894 1.606Zm0-6.736c1.455 0 2.647-.505 3.578-1.516.931-1.04 1.396-2.468 1.396-4.282 0-1.784-.465-3.182-1.396-4.193-.931-1.011-2.123-1.516-3.578-1.516-1.454 0-2.647.505-3.578 1.516-.931 1.011-1.396 2.409-1.396 4.193 0 1.814.465 3.241 1.396 4.282.931 1.011 2.124 1.517 3.578 1.517ZM150.302 50.265c-2.531 0-4.814-.535-6.85-1.606-2.037-1.07-3.637-2.557-4.8-4.46-1.135-1.904-1.702-4.06-1.702-6.468 0-2.379.567-4.52 1.702-6.423 1.163-1.903 2.749-3.375 4.756-4.416 2.036-1.07 4.334-1.606 6.894-1.606 2.56 0 4.858.535 6.894 1.606 2.036 1.04 3.621 2.513 4.756 4.416 1.134 1.873 1.701 4.014 1.701 6.423 0 2.408-.567 4.564-1.701 6.468-1.135 1.903-2.72 3.39-4.756 4.46-2.036 1.07-4.334 1.606-6.894 1.606Zm0-6.736c1.454 0 2.647-.505 3.578-1.516.931-1.04 1.396-2.468 1.396-4.282 0-1.784-.465-3.182-1.396-4.193-.931-1.011-2.124-1.516-3.578-1.516-1.455 0-2.647.505-3.578 1.516-.931 1.011-1.396 2.409-1.396 4.193 0 1.814.465 3.241 1.396 4.282.931 1.011 2.123 1.517 3.578 1.517ZM193.499 16.767v33.096h-7.898v-2.408c-1.541 1.873-3.854 2.81-6.937 2.81-2.153 0-4.116-.506-5.891-1.517-1.774-1.04-3.185-2.512-4.232-4.416-1.018-1.903-1.527-4.103-1.527-6.601s.509-4.684 1.527-6.557c1.047-1.903 2.458-3.36 4.232-4.371 1.775-1.011 3.738-1.517 5.891-1.517 2.821 0 5.003.833 6.545 2.498V16.767h8.29Zm-13.09 26.762c1.425 0 2.604-.505 3.534-1.516.931-1.04 1.397-2.468 1.397-4.282 0-1.784-.466-3.182-1.397-4.193-.901-1.011-2.079-1.516-3.534-1.516-1.454 0-2.647.505-3.578 1.516-.931 1.011-1.396 2.409-1.396 4.193 0 1.814.465 3.241 1.396 4.282.931 1.011 2.124 1.517 3.578 1.517ZM227.325 43.886h-4.538v5.977h-8.421v-5.977h-16.144v-5.754l13.7-19.492h8.945l-12.435 18.243h6.196v-5.308h8.159v5.308h4.538v7.003ZM256 25.688v24.175h-7.898v-2.587a8.486 8.486 0 0 1-3.141 2.23 10.056 10.056 0 0 1-3.883.759c-3.055 0-5.498-.922-7.331-2.766-1.803-1.843-2.705-4.609-2.705-8.296V25.688h8.29V37.82c0 1.814.335 3.137 1.004 3.97.669.833 1.643 1.249 2.923 1.249 1.309 0 2.371-.461 3.185-1.383.844-.951 1.266-2.394 1.266-4.327V25.688H256Z" fill="#000"/><path fill-rule="evenodd" clip-rule="evenodd" d="M22.087 57.938c7.4 2.628 14.733-2.427 21.38-6.587 5.521-3.455 10.107-7.987 11.904-14.243 1.965-6.841 2.294-14.522-2.008-20.205-4.442-5.866-12.031-8.287-19.386-8.05-7.111.227-13.332 3.926-18.037 9.25-5.142 5.817-9.468 12.85-8.283 20.527 1.288 8.347 6.461 16.477 14.43 19.308Z" fill="#fff" stroke="#E8E8E8" stroke-width="4.676"/><path fill-rule="evenodd" clip-rule="evenodd" d="M37.597 17.413c4.704 2.191 8.094 6.704 7.567 11.626-.535 4.988-4.701 8.721-9.825 9.442-4.794.674-9.28-2.233-11.711-6.413-2.442-4.199-2.72-9.4.53-12.81 3.343-3.507 8.833-3.99 13.439-1.845Z" fill="#FFD02B" stroke="#F9CA25" stroke-width="4.676"/></svg><svg fill="none" viewBox="0 0 256 68" id="logo-header" xmlns="http://www.w3.org/2000/svg"><g clip-path="url(#ha)"><path d="M99.19 26.724h5.629v6.334h-5.41v16.95h-8.29v-16.95H87.67v-6.334h3.447V26.1c0-2.944.858-5.278 2.575-7.003 1.745-1.725 4.174-2.587 7.286-2.587 1.047 0 2.065.104 3.054.312.989.208 1.804.52 2.444.937l-2.051 5.977c-.814-.476-1.643-.714-2.487-.714-.873 0-1.556.268-2.05.803-.466.535-.699 1.323-.699 2.364v.535ZM120.369 50.41c-2.531 0-4.814-.536-6.85-1.606-2.036-1.07-3.636-2.558-4.8-4.46-1.134-1.904-1.701-4.06-1.701-6.469 0-2.379.567-4.52 1.701-6.423 1.164-1.903 2.749-3.375 4.756-4.416 2.036-1.07 4.334-1.605 6.894-1.605 2.56 0 4.858.535 6.894 1.605 2.036 1.041 3.622 2.513 4.756 4.416 1.135 1.874 1.702 4.015 1.702 6.423 0 2.41-.567 4.565-1.702 6.468-1.134 1.903-2.72 3.39-4.756 4.46-2.036 1.071-4.334 1.606-6.894 1.606Zm0-6.736c1.455 0 2.647-.505 3.578-1.517.931-1.04 1.396-2.468 1.396-4.282 0-1.784-.465-3.181-1.396-4.192-.931-1.011-2.123-1.517-3.578-1.517-1.454 0-2.647.506-3.578 1.517-.931 1.01-1.396 2.408-1.396 4.192 0 1.814.465 3.242 1.396 4.282.931 1.012 2.124 1.517 3.578 1.517ZM150.302 50.41c-2.531 0-4.814-.536-6.85-1.606-2.037-1.07-3.637-2.558-4.8-4.46-1.135-1.904-1.702-4.06-1.702-6.469 0-2.379.567-4.52 1.702-6.423 1.163-1.903 2.749-3.375 4.756-4.416 2.036-1.07 4.334-1.605 6.894-1.605 2.56 0 4.858.535 6.894 1.605 2.036 1.041 3.621 2.513 4.756 4.416 1.134 1.874 1.701 4.015 1.701 6.423 0 2.41-.567 4.565-1.701 6.468-1.135 1.903-2.72 3.39-4.756 4.46-2.036 1.071-4.334 1.606-6.894 1.606Zm0-6.736c1.454 0 2.647-.505 3.578-1.517.931-1.04 1.396-2.468 1.396-4.282 0-1.784-.465-3.181-1.396-4.192-.931-1.011-2.124-1.517-3.578-1.517-1.455 0-2.647.506-3.578 1.517-.931 1.01-1.396 2.408-1.396 4.192 0 1.814.465 3.242 1.396 4.282.931 1.012 2.123 1.517 3.578 1.517ZM193.499 16.911v33.097h-7.898v-2.409c-1.541 1.874-3.854 2.81-6.937 2.81-2.153 0-4.116-.505-5.891-1.516-1.774-1.041-3.185-2.513-4.232-4.416-1.018-1.903-1.527-4.104-1.527-6.602 0-2.497.509-4.683 1.527-6.556 1.047-1.904 2.458-3.36 4.232-4.372 1.775-1.01 3.738-1.516 5.891-1.516 2.821 0 5.003.832 6.545 2.498V16.91h8.29Zm-13.09 26.763c1.425 0 2.604-.505 3.534-1.517.931-1.04 1.397-2.468 1.397-4.282 0-1.784-.466-3.181-1.397-4.192-.901-1.011-2.079-1.517-3.534-1.517-1.454 0-2.647.506-3.578 1.517-.931 1.01-1.396 2.408-1.396 4.192 0 1.814.465 3.242 1.396 4.282.931 1.012 2.124 1.517 3.578 1.517ZM227.325 44.03h-4.538v5.978h-8.421V44.03h-16.144v-5.754l13.7-19.492h8.945l-12.435 18.243h6.196V31.72h8.159v5.308h4.538v7.003ZM256 25.832v24.176h-7.898V47.42a8.488 8.488 0 0 1-3.141 2.23 10.056 10.056 0 0 1-3.883.758c-3.055 0-5.498-.922-7.331-2.765-1.803-1.844-2.705-4.61-2.705-8.297V25.832h8.29v12.133c0 1.814.335 3.137 1.004 3.97.669.832 1.643 1.248 2.923 1.248 1.309 0 2.371-.46 3.185-1.382.844-.952 1.266-2.394 1.266-4.327V25.832H256Z" fill="#fff"/><path fill-rule="evenodd" clip-rule="evenodd" d="M22.087 58.082c7.4 2.629 14.733-2.426 21.38-6.586 5.521-3.455 10.107-7.987 11.904-14.244 1.965-6.84 2.294-14.522-2.008-20.204C48.92 11.18 41.332 8.76 33.977 8.997c-7.111.228-13.332 3.927-18.037 9.25-5.142 5.818-9.468 12.85-8.283 20.528 1.288 8.347 6.461 16.477 14.43 19.307Z" fill="#fff" stroke="#E8E8E8" stroke-width="4.676"/><path fill-rule="evenodd" clip-rule="evenodd" d="M37.597 17.558c4.704 2.19 8.094 6.704 7.567 11.625-.535 4.989-4.701 8.722-9.825 9.442-4.794.675-9.28-2.232-11.711-6.413-2.442-4.198-2.72-9.4.53-12.81 3.343-3.506 8.833-3.989 13.439-1.844Z" fill="#FFD02B" stroke="#F9CA25" stroke-width="4.676"/></g><defs><clipPath id="ha"><path fill="#fff" transform="translate(0 .145)" d="M0 0h256v67.19H0z"/></clipPath></defs></svg></svg>